<svg width="103" height="32" viewBox="0 0 103 32" fill="none" xmlns="http://www.w3.org/2000/svg">
<g clip-path="url(#clip0_5626_3327)">
<g opacity="0.5">
<path d="M21.405 19.7601V24.703H19.004V11.4525H21.3879V12.767C22.0184 11.838 23.0879 11.2598 24.3671 11.2598C26.751 11.2598 28.9234 13.1701 28.9234 16.1868C28.9234 19.2035 26.7152 21.1121 24.3842 21.1121C23.1055 21.1098 22.0361 20.6368 21.405 19.7601ZM26.5054 16.1675C26.5054 14.6773 25.349 13.5033 23.8941 13.5033C22.4045 13.5033 21.2651 14.6972 21.2651 16.1675C21.2651 17.6377 22.4022 18.8311 23.8941 18.8311C25.349 18.8311 26.5054 17.6571 26.5054 16.1675Z" fill="black"/>
<path d="M50.8693 11.4525H53.2857V12.5743C53.8639 11.7521 54.7752 11.2598 55.9146 11.2598C57.336 11.2598 58.2985 11.838 58.8068 12.8545C59.4026 11.8732 60.4715 11.2626 61.7684 11.2626C64.1699 11.2626 65.3792 12.7346 65.3792 15.1009V20.9171H62.8901V15.4477C62.8901 14.1679 62.3642 13.3793 61.1378 13.3793C60.0508 13.3793 59.3321 14.1184 59.3321 15.6052V20.9171H56.8612V15.3783C56.8612 14.1167 56.3353 13.3805 55.1607 13.3805C54.0236 13.3805 53.3033 14.1343 53.3033 15.6592V20.9171H50.8693V11.4525Z" fill="black"/>
<path d="M71.5131 11.2764C69.4942 11.2764 67.8255 12.3981 67.0392 14.0441C66.7166 14.7235 66.5505 15.4666 66.5531 16.2188C66.5531 18.9705 68.5157 21.1265 71.5654 21.1265C73.561 21.1265 74.863 20.339 75.8039 19.1047L73.8259 17.9625C73.3489 18.6266 72.632 19.0427 71.6007 19.0427C70.1986 19.0427 69.1991 18.2712 68.8841 17.0443H76.3401C76.381 16.7716 76.4017 16.4962 76.402 16.2205V16.1306C76.4032 13.3271 74.3501 11.2764 71.5131 11.2764ZM68.9546 15.1499C69.3401 14.0458 70.2867 13.3271 71.5131 13.3271C72.7747 13.3271 73.6861 13.9758 74.0016 15.1499H68.9546Z" fill="black"/>
<path d="M77.6102 11.4532H80.0288V12.6472C80.6423 11.7887 81.6207 11.2627 82.7982 11.2627C85.0417 11.2627 86.4613 12.7347 86.4613 15.2062V20.9178H83.9899V15.5735C83.9899 14.2243 83.3411 13.3829 82.0619 13.3829C80.9248 13.3829 80.0464 14.2243 80.0464 15.6963V20.9178H77.6102V11.4532Z" fill="black"/>
<path d="M87.1044 11.4528H88.8567V9.40203L91.2406 8V11.4528H93.7291V13.5911H91.2406V17.4822C91.2406 18.4812 91.6613 18.8314 92.2748 18.8314C92.6074 18.8314 92.8706 18.7262 93.1509 18.4812L94.255 20.3739C93.6416 20.8287 92.8706 21.0925 91.9939 21.0925C90.0137 21.0925 88.8567 20.1459 88.8567 17.5675V13.5877H87.1044V11.4528Z" fill="black"/>
<path d="M37.2175 12.6618C36.5693 11.7857 35.5351 11.2598 34.2906 11.2598C31.872 11.2598 29.6984 13.1701 29.6984 16.1845C29.6984 19.199 31.9243 21.1098 34.2559 21.1098C35.4828 21.1098 36.5517 20.5487 37.2175 19.6202V20.9171H39.6014V11.4554H37.2175V12.6618ZM34.7289 18.8311C33.274 18.8311 32.1 17.6571 32.1 16.1675C32.1 14.6779 33.274 13.5033 34.7289 13.5033C36.2185 13.5033 37.3579 14.6972 37.3579 16.1675C37.3579 17.6377 36.2185 18.8311 34.7289 18.8311Z" fill="black"/>
<path d="M47.6695 11.4531L45.3385 17.5525L42.8846 11.4531H40.308L44.1115 20.5146L44.161 20.6329L42.6265 24.6479L42.6185 24.6684H45.1423L50.1933 11.4531H47.6695Z" fill="black"/>
<path d="M96.5127 17.8561C96.9357 18.6958 97.6909 19.1319 98.6898 19.1296C99.6717 19.1268 100.196 18.6526 100.195 18.0915C100.195 17.4092 99.1758 17.2528 97.9654 17.0112C96.3695 16.6826 94.5974 16.1965 94.5917 14.1981C94.5877 12.6061 96.1267 11.2143 98.4577 11.2257C100.311 11.2206 101.471 11.8653 102.333 12.9632L100.324 14.1304C99.9365 13.5004 99.3396 13.1337 98.4629 13.136C97.5163 13.1388 97.0614 13.5255 97.0631 14.0514C97.0631 14.6472 97.8363 14.803 99.2236 15.0975C100.802 15.4085 102.663 15.9469 102.668 17.98C102.672 19.4526 101.36 21.1212 98.6085 21.111C96.5333 21.1167 95.1614 20.4009 94.3671 19.1035L94.3636 19.0978L96.5127 17.8561Z" fill="black"/>
<path d="M15.2214 15.6022C15.0417 14.064 14.3076 12.6439 13.1564 11.6079C12.0053 10.5718 10.516 9.99083 8.9674 9.97363H8.8969C8.64992 9.97374 8.40315 9.98797 8.15779 10.0163C7.28987 10.1162 6.45195 10.3943 5.69656 10.8333C5.68007 10.8429 5.66472 10.8526 5.64823 10.8617L5.60616 10.8867C1.96519 13.0551 0.666626 18.0629 0.666626 21.1097L3.59862 19.4172C4.63224 21.386 6.61476 22.6835 8.82527 22.7073H8.89577C9.14276 22.707 9.38953 22.6926 9.63488 22.6641C11.3121 22.4683 12.8428 21.6144 13.8905 20.29C14.9381 18.9657 15.4169 17.2795 15.2214 15.6022Z" fill="black"/>
</g>
</g>
<defs>
<clipPath id="clip0_5626_3327">
<rect width="102" height="32" fill="white" transform="translate(0.666626)"/>
</clipPath>
</defs>
</svg>
