<svg width="36" height="36" viewBox="0 0 36 36" fill="none" xmlns="http://www.w3.org/2000/svg">
<path fill-rule="evenodd" clip-rule="evenodd" d="M28.9271 8.8927C28.3272 8.29236 27.6148 7.81612 26.8308 7.49119C26.0467 7.16627 25.2063 6.99902 24.3576 6.99902C23.5089 6.99902 22.6685 7.16627 21.8844 7.49119C21.1004 7.81612 20.388 8.29236 19.7881 8.8927L17.9591 10.7207L16.1321 8.8927C14.9203 7.68066 13.2767 6.99964 11.5628 6.99946C9.84891 6.99927 8.20514 7.67993 6.9931 8.8917C5.78106 10.1035 5.10004 11.7471 5.09985 13.461C5.09967 15.1749 5.78033 16.8187 6.9921 18.0307L8.8201 19.8597L17.2521 28.2937C17.4396 28.4812 17.6939 28.5865 17.9591 28.5865C18.2243 28.5865 18.4786 28.4812 18.6661 28.2937L27.0991 19.8597L28.9271 18.0317C29.5273 17.4318 30.0034 16.7195 30.3283 15.9356C30.6531 15.1516 30.8203 14.3113 30.8203 13.4627C30.8203 12.6141 30.6531 11.7738 30.3283 10.9899C30.0034 10.2059 29.5273 9.49361 28.9271 8.8937V8.8927Z" stroke="#FF0101" stroke-width="1.7" stroke-linecap="round"/>
</svg>
