<svg width="35" height="34" viewBox="0 0 35 34" fill="none" xmlns="http://www.w3.org/2000/svg">
<g clip-path="url(#clip0_5626_3306)">
<mask id="mask0_5626_3306" style="mask-type:alpha" maskUnits="userSpaceOnUse" x="0" y="0" width="35" height="34">
<path fill-rule="evenodd" clip-rule="evenodd" d="M17.3238 0.0195312C7.94025 0.0195312 0.333313 7.62648 0.333313 17.0102C0.333313 26.3936 7.94025 34.0005 17.3238 34.0005C26.7073 34.0005 34.3141 26.3936 34.3141 17.0102C34.3141 7.62648 26.7073 0.0195312 17.3238 0.0195312Z" fill="white"/>
</mask>
<g mask="url(#mask0_5626_3306)">
<path fill-rule="evenodd" clip-rule="evenodd" d="M17.3238 0.0195312C7.94025 0.0195312 0.333313 7.62648 0.333313 17.0102C0.333313 26.3936 7.94025 34.0005 17.3238 34.0005C26.7073 34.0005 34.3141 26.3936 34.3141 17.0102C34.3141 7.62648 26.7073 0.0195312 17.3238 0.0195312Z" fill="url(#paint0_radial_5626_3306)"/>
</g>
<path fill-rule="evenodd" clip-rule="evenodd" d="M14.5495 25.8266C14.3674 25.9472 14.1606 25.9614 13.9272 25.9601C13.9713 25.755 14.0076 25.5753 14.0509 25.3975C14.059 25.3644 14.0667 25.3134 14.1197 25.3134C14.281 25.3134 14.4238 25.3154 14.5717 25.3694C14.7246 25.4251 14.7162 25.7162 14.5495 25.8266ZM14.2314 26.8897C14.2711 27.0482 14.2913 27.2117 14.3152 27.3736C14.3298 27.4732 14.3812 27.5145 14.4809 27.5115C14.614 27.5076 14.7473 27.5117 14.8804 27.5104C15.0616 27.5087 15.0883 27.4783 15.0438 27.2966C14.965 26.9755 14.9176 26.5818 14.7378 26.3341C14.7716 26.3169 14.8903 26.2726 14.9526 26.2392C15.2832 26.0621 15.4467 25.744 15.3933 25.384C15.3472 25.0743 15.1458 24.8627 14.7587 24.8146C14.3746 24.7669 13.9833 24.7729 13.595 24.7687C13.5716 24.7683 13.5231 24.7671 13.4958 24.7898C13.4658 24.8144 13.4577 24.8641 13.4518 24.8907C13.2697 25.7102 13.0967 26.5316 12.9218 27.3525C12.8995 27.457 12.9421 27.5099 13.0487 27.5103C13.1717 27.5107 13.295 27.5049 13.4175 27.5123C13.5408 27.5199 13.6037 27.4783 13.6267 27.3492C13.6707 27.1024 13.7265 26.8576 13.787 26.6143C13.8002 26.5618 13.8126 26.4707 13.8463 26.472C13.8463 26.472 13.995 26.4588 14.0333 26.4639C14.0719 26.469 14.168 26.6364 14.2314 26.8897Z" fill="#C3C3C3"/>
<path fill-rule="evenodd" clip-rule="evenodd" d="M11.5716 26.1881C11.6345 25.904 11.6944 25.6325 11.756 25.3613C11.7601 25.3432 11.7779 25.3132 11.7879 25.3136C11.9284 25.3211 12.0784 25.3065 12.2044 25.3545C12.2668 25.3783 12.3178 25.5194 12.317 25.6069C12.314 25.9749 12.0051 26.2215 11.5716 26.1881ZM12.4297 24.8173C12.2145 24.7757 11.7732 24.756 11.7728 24.7603C11.6191 24.7603 11.4654 24.7609 11.3116 24.7601C11.2169 24.7595 11.1581 24.7984 11.1377 24.8961C10.9651 25.7131 10.7915 26.5295 10.617 27.3462C10.5924 27.4612 10.6396 27.5105 10.7524 27.51C10.8804 27.5092 11.0088 27.5062 11.1367 27.5113C11.2414 27.5154 11.2969 27.4761 11.3164 27.3692C11.3467 27.203 11.3961 27.04 11.4224 26.8735C11.4317 26.8141 11.4414 26.7675 11.4721 26.7426C11.5028 26.7177 11.5542 26.7145 11.6124 26.7064C11.8594 26.6724 12.1127 26.6387 12.3459 26.5558C12.7927 26.397 13.0205 26.0586 13.0329 25.582C13.0439 25.164 12.8411 24.8969 12.4297 24.8173Z" fill="#C3C3C3"/>
<path fill-rule="evenodd" clip-rule="evenodd" d="M18.4443 25.1832C18.6829 24.6811 18.5312 24.772 19.1024 24.7617C19.138 24.761 19.174 24.7604 19.2096 24.7628C19.3677 24.7733 19.4065 24.8324 19.3339 24.9687C18.9003 25.7815 18.4661 26.5939 18.0257 27.4029C17.998 27.4534 17.9187 27.4998 17.86 27.5047C17.6973 27.5185 17.5327 27.508 17.3689 27.5101C17.2664 27.5112 17.2263 27.4623 17.2157 27.3622C17.1296 26.5583 17.0413 25.7547 16.9497 24.9514C16.9343 24.8166 16.985 24.7593 17.1166 24.7609C17.2495 24.7626 17.3828 24.7647 17.5158 24.7609C17.6556 24.7566 17.7016 24.8235 17.7038 24.958L17.7383 26.6898L18.4443 25.1832Z" fill="#C3C3C3"/>
<path fill-rule="evenodd" clip-rule="evenodd" d="M9.64761 26.2364C9.49302 26.2918 9.15112 26.323 9.14301 26.306C9.19735 26.1155 9.28759 25.9471 9.48778 25.8748C9.59184 25.8371 9.71529 25.815 9.78043 25.9487C9.82842 26.047 9.77042 26.1925 9.64761 26.2364ZM10.0399 25.411C9.80633 25.33 9.56706 25.3309 9.3289 25.3899C8.60966 25.568 8.33512 26.2861 8.4082 26.8811C8.45173 27.2349 8.66622 27.4672 9.02179 27.51C9.2663 27.5393 9.52242 27.5306 9.76629 27.4925C10.1154 27.4378 10.1125 27.4197 10.1746 27.0716C10.2123 26.8611 10.1772 26.8389 9.97204 26.8895C9.76026 26.9418 9.54339 26.9774 9.32668 27.0033C9.22102 27.016 9.12331 26.9737 9.10584 26.8168C9.17082 26.812 9.22627 26.8088 9.28156 26.8037C9.59327 26.7759 9.90595 26.7478 10.1784 26.5719C10.4175 26.4177 10.5119 26.1906 10.4787 25.9126C10.4471 25.6485 10.2795 25.4941 10.0399 25.411Z" fill="#C3C3C3"/>
<path fill-rule="evenodd" clip-rule="evenodd" d="M24.118 27.3585C24.1019 27.5092 24.1688 27.5096 24.4367 27.5079C24.7158 27.5061 24.7698 27.536 24.8026 27.4002L25.0002 26.4224L26.1338 24.986C26.1662 24.9434 26.1977 24.8802 26.185 24.8338C26.1667 24.7668 26.0869 24.7726 26.0869 24.7726H25.5436C25.4513 24.7726 25.4422 24.8085 25.4422 24.8085C25.3154 24.9784 24.8086 25.7539 24.7673 25.8079C24.7449 25.7281 24.6057 25.1762 24.5628 24.9503C24.5439 24.8514 24.5039 24.796 24.4314 24.7764C24.4033 24.7688 23.9119 24.7737 23.8868 24.778C23.7816 24.7955 23.7706 24.8511 23.8204 24.9949L24.3159 26.3916L24.118 27.3585Z" fill="#C3C3C3"/>
<path fill-rule="evenodd" clip-rule="evenodd" d="M23.2389 26.9948C23.2369 26.9103 23.1883 26.8874 23.0742 26.9096C22.9237 26.9387 22.7749 26.9824 22.6231 26.9972C22.3432 27.0242 22.2386 26.9254 22.2315 26.6414C22.2224 26.2802 22.316 25.9411 22.4854 25.6251C22.6565 25.3058 22.9299 25.2006 23.2752 25.3069C23.5928 25.4046 23.5896 25.4039 23.6625 25.0703C23.6862 24.9615 23.6565 24.9011 23.5557 24.8528C23.4428 24.7985 23.2958 24.7262 23.0122 24.71C22.4655 24.71 22.1708 24.9162 21.9126 25.3094C21.6427 25.7206 21.5224 26.1775 21.534 26.6637C21.5475 27.2415 21.8708 27.5423 22.4515 27.5436C22.5535 27.5439 22.6559 27.5324 22.7571 27.5194C23.1047 27.4748 23.1509 27.4659 23.2054 27.2053C23.2132 27.1681 23.2394 27.014 23.2389 26.9948Z" fill="#C3C3C3"/>
<path fill-rule="evenodd" clip-rule="evenodd" d="M16.5833 24.7626C16.4656 24.7604 16.3475 24.7665 16.2301 24.7595C16.0911 24.7512 16.0331 24.8121 16.0051 24.9479C15.855 25.6795 15.6969 26.4096 15.54 27.1399C15.5274 27.1979 15.5169 27.2469 15.5094 27.288C15.5056 27.3085 15.5026 27.3274 15.5007 27.3443C15.4985 27.3613 15.4974 27.3765 15.4974 27.3902C15.4964 27.5106 15.5773 27.5103 15.8386 27.51C15.9052 27.51 15.9718 27.5077 16.0382 27.5106C16.1292 27.5143 16.1794 27.4764 16.1991 27.3845C16.3731 26.5688 16.5487 25.7536 16.7255 24.9385C16.752 24.8159 16.6991 24.7647 16.5833 24.7626Z" fill="#C3C3C3"/>
<path fill-rule="evenodd" clip-rule="evenodd" d="M19.9987 26.4362L20.4563 25.5097L20.4985 26.4362H19.9987ZM21.2726 27.3052C21.2561 27.132 21.2321 26.9597 21.2111 26.7871C21.1366 26.1726 21.0594 25.5585 20.9891 24.9433C20.9737 24.807 20.9092 24.757 20.7788 24.7621C20.6509 24.7668 20.5225 24.7692 20.3949 24.7608C20.2553 24.7517 20.1717 24.8035 20.1037 24.9308C19.6895 25.7074 19.2667 26.4794 18.8473 27.2533L18.7877 27.351C18.7262 27.5073 18.8473 27.5092 18.8473 27.5092H19.3797C19.5001 27.5092 19.5156 27.4422 19.5156 27.4422L19.7489 26.9732H20.4741C20.5586 26.9732 20.5511 27.0038 20.5511 27.0038C20.5511 27.0038 20.5484 27.1808 20.5586 27.3499C20.5691 27.5191 20.6485 27.5092 20.6485 27.5092H21.0862C21.2737 27.5075 21.2902 27.4925 21.2726 27.3052Z" fill="#C3C3C3"/>
<path fill-rule="evenodd" clip-rule="evenodd" d="M20.0793 29.3171C20.1254 29.3263 20.1746 29.3325 20.2482 29.3325C20.5159 29.3325 20.6913 29.1603 20.6913 28.9542C20.6913 28.7542 20.5466 28.6897 20.3745 28.6897C20.2914 28.6897 20.2329 28.6957 20.1959 28.7049L20.0793 29.3171ZM19.8208 28.3913C19.953 28.3575 20.1621 28.3359 20.3621 28.3359C20.5466 28.3359 20.762 28.3667 20.9126 28.4742C21.051 28.5697 21.1371 28.7141 21.1371 28.9142C21.1371 29.1755 21.0172 29.3725 20.8543 29.4985C20.6851 29.6309 20.4452 29.6892 20.1931 29.6892C20.1192 29.6892 20.0575 29.6831 20.0115 29.6769L19.8701 30.4243H19.4363L19.8208 28.3913Z" fill="white"/>
<path fill-rule="evenodd" clip-rule="evenodd" d="M21.534 28.3516H21.9768L21.657 30.0371H22.4536L22.3798 30.4246H21.1402L21.534 28.3516Z" fill="white"/>
<path fill-rule="evenodd" clip-rule="evenodd" d="M23.4714 28.3516L23.2437 29.5451C23.2285 29.6158 23.2223 29.6987 23.2223 29.7912C23.2223 29.957 23.3238 30.0864 23.5237 30.0864C23.7542 30.0864 23.9082 29.9326 23.9821 29.5481L24.2096 28.3516H24.6525L24.428 29.5296C24.3081 30.1571 24.0311 30.4586 23.4682 30.4586C23.0409 30.4586 22.7793 30.2401 22.7793 29.7972C22.7793 29.7079 22.7917 29.6064 22.8102 29.508L23.0286 28.3516H23.4714Z" fill="white"/>
<path fill-rule="evenodd" clip-rule="evenodd" d="M24.7353 29.9445C24.8583 30.0183 25.0337 30.0766 25.2243 30.0766C25.3965 30.0766 25.5534 29.9967 25.5534 29.8337C25.5534 29.7168 25.4642 29.6399 25.2736 29.5415C25.0521 29.4216 24.843 29.2616 24.843 28.9909C24.843 28.5725 25.2089 28.3174 25.6611 28.3174C25.9132 28.3174 26.061 28.3727 26.1501 28.4219L26.0117 28.791C25.944 28.7541 25.7966 28.6957 25.6244 28.6987C25.4182 28.6987 25.3104 28.8032 25.3104 28.9171C25.3104 29.0371 25.4366 29.111 25.612 29.2093C25.864 29.3415 26.024 29.5109 26.024 29.7568C26.024 30.2182 25.6426 30.4551 25.1814 30.4551C24.8921 30.4551 24.686 30.3812 24.5877 30.3073L24.7353 29.9445Z" fill="white"/>
<path fill-rule="evenodd" clip-rule="evenodd" d="M30.1737 19.7125C29.9713 19.1026 29.5246 18.8411 28.8441 18.935C28.8239 18.9378 28.8063 18.9407 28.794 18.9415C28.4896 18.9543 28.1828 19.1793 27.6511 19.6679C27.0149 17.7281 26.2183 15.52 25.6694 14.7738C24.8712 13.6886 23.9975 13.1294 23.2354 12.848C24.5614 12.1245 25.4609 10.7178 25.4609 9.10085C25.4609 6.74484 23.5509 4.83496 21.1949 4.83496C18.839 4.83496 16.9291 6.74484 16.9291 9.10085C16.9291 10.7359 17.8494 12.1555 19.1997 12.8715C18.4618 13.16 17.5925 13.7176 16.7207 14.7738C16.0601 15.574 15.1915 18.2505 14.5844 20.334C14.2899 20.2973 13.9991 20.2519 13.7127 20.1987C14.475 17.8733 15.2477 15.6441 15.6095 14.9895C16.4489 13.4708 17.584 12.7433 17.584 12.7433C14.6834 9.45118 16.831 6.44504 17.2548 5.91502C16.9935 5.86084 16.7226 5.83224 16.445 5.83224C14.2481 5.83224 12.4672 7.61327 12.4672 9.81008C12.4672 11.3347 13.3253 12.6583 14.5844 13.3261C13.8965 13.5951 13.0859 14.1151 12.2729 15.0998C11.757 15.7245 11.1058 17.5754 10.5751 19.3015C10.299 19.1955 10.0337 19.0865 9.77867 18.9763C10.2002 17.7323 10.6029 16.5937 10.8692 15.9568C11.6846 14.0064 12.9955 13.287 12.9955 13.287C12.9955 13.287 10.0826 10.4505 12.5959 6.8211C12.2945 6.74452 11.9788 6.70353 11.6537 6.70353C9.54639 6.70353 7.83813 8.41179 7.83813 10.519C7.83813 11.9815 8.66128 13.2511 9.86908 13.8915C9.20909 14.1495 8.50415 14.6483 7.72437 15.593C7.45412 15.9202 7.13986 16.5988 6.82449 17.4167C6.55392 17.2435 6.40266 17.1352 6.39472 17.1295C6.19501 16.9844 5.91507 17.0284 5.76953 17.2284C5.62416 17.4283 5.66833 17.7083 5.8682 17.8536C6.05202 17.9876 10.4331 21.1337 15.7514 21.3285C20.8793 21.5159 23.3736 19.9751 24.572 19.2346L24.7398 19.1315C24.8171 19.0841 25.079 18.9375 25.1948 19.0349C25.3143 19.1358 25.3956 19.4879 25.2374 19.887C24.9999 20.4856 24.2654 21.206 23.7212 21.5301C23.3777 21.7349 23.1287 22.1971 23.3256 22.5869C23.7009 23.3305 24.9832 22.7924 25.4047 22.6154C26.1811 22.2894 27.0441 21.4715 27.8057 20.75C28.1793 20.3958 28.6877 19.9141 28.8684 19.8336C28.8973 19.831 28.9305 19.8269 28.9669 19.8218C29.2144 19.7875 29.2581 19.7966 29.3237 19.9944C29.4259 20.3018 30.2085 23.0877 26.3417 26.2183C26.1495 26.374 26.1198 26.6558 26.2753 26.8479C26.364 26.9572 26.4932 27.0139 26.6236 27.0139C26.7224 27.0139 26.8222 26.9814 26.905 26.9142C30.1969 24.2491 30.7231 21.3691 30.1737 19.7125Z" fill="white"/>
</g>
<defs>
<radialGradient id="paint0_radial_5626_3306" cx="0" cy="0" r="1" gradientUnits="userSpaceOnUse" gradientTransform="translate(11.4439 4.21183) scale(31.0439 31.044)">
<stop stop-color="#BCBCBA"/>
<stop offset="1" stop-color="#676766"/>
</radialGradient>
<clipPath id="clip0_5626_3306">
<rect width="34" height="34" fill="white" transform="translate(0.333313)"/>
</clipPath>
</defs>
</svg>
