<svg xmlns="http://www.w3.org/2000/svg" width="10" height="18" viewBox="0 0 10 18" fill="none">
<path d="M9.71504 17.699C9.54482 17.8731 9.3169 17.9792 9.07406 17.9972C8.83122 18.0153 8.59013 17.9441 8.39604 17.797L8.30104 17.715L0.301043 9.89801C0.12886 9.72978 0.0231428 9.50507 0.00330353 9.26517C-0.0165358 9.02526 0.0508347 8.78624 0.193043 8.59201L0.273043 8.49601L7.99604 0.314009C8.17057 0.128908 8.40909 0.0172859 8.66303 0.00186956C8.91696 -0.0135467 9.16723 0.0684032 9.36287 0.231032C9.55851 0.39366 9.68481 0.62474 9.71605 0.877221C9.7473 1.1297 9.68114 1.3846 9.53104 1.59001L9.45104 1.68601L2.40204 9.15501L9.69904 16.285C9.87317 16.4552 9.97921 16.6831 9.99725 16.926C10.0153 17.1688 9.94411 17.4099 9.79704 17.604L9.71504 17.699Z" fill="white"/>
</svg>