<svg width="40" height="40" viewBox="0 0 40 40" fill="none" xmlns="http://www.w3.org/2000/svg">
<path d="M20 40C31.0457 40 40 31.0457 40 20C40 8.9543 31.0457 0 20 0C8.9543 0 0 8.9543 0 20C0 31.0457 8.9543 40 20 40Z" fill="#0298E4"/>
<path d="M29.4001 11.2002H10.6001C10.0478 11.2002 9.6001 11.6479 9.6001 12.2002V13.4002C9.6001 13.9525 10.0478 14.4002 10.6001 14.4002H29.4001C29.9524 14.4002 30.4001 13.9525 30.4001 13.4002V12.2002C30.4001 11.6479 29.9524 11.2002 29.4001 11.2002Z" fill="#0298E4" stroke="white" stroke-linejoin="round"/>
<path fill-rule="evenodd" clip-rule="evenodd" d="M10.3999 14.4004H29.5999V28.0004C29.5999 28.4422 29.2417 28.8004 28.7999 28.8004H11.1999C10.7581 28.8004 10.3999 28.4422 10.3999 28.0004V14.4004Z" fill="#0298E4" stroke="white" stroke-linejoin="round"/>
<path d="M23.3298 24.9743C23.5918 24.887 23.7334 24.6038 23.646 24.3419C23.5587 24.0799 23.2755 23.9383 23.0135 24.0257L23.3298 24.9743ZM15.6866 20.3788C15.4188 21.4505 15.4406 22.4025 15.7435 23.2008C16.0489 24.0055 16.6236 24.6105 17.3776 25.0054C18.8615 25.7826 21.0185 25.7449 23.3298 24.9743L23.0135 24.0257C20.8257 24.7551 18.983 24.7174 17.8416 24.1196C17.2831 23.827 16.889 23.4007 16.6785 22.8461C16.4656 22.285 16.4248 21.5495 16.6568 20.6212L15.6866 20.3788Z" fill="white"/>
<path d="M23.3518 20.4784C23.4458 23.126 15.676 22.4994 16.1803 20.5C16.6846 18.5006 19.1374 18.0006 20.3518 18C22.8938 17.9988 23.3135 19.3985 23.3518 20.4784Z" stroke="white"/>
</svg>
