<svg width="40" height="40" viewBox="0 0 40 40" fill="none" xmlns="http://www.w3.org/2000/svg">
<g clip-path="url(#clip0_5537_3908)">
<path d="M20 40C31.0457 40 40 31.0457 40 20C40 8.9543 31.0457 0 20 0C8.9543 0 0 8.9543 0 20C0 31.0457 8.9543 40 20 40Z" fill="#0298E4"/>
<path d="M27.7999 9.59961H12.2C11.6477 9.59961 11.2 10.0473 11.2 10.5996V29.3996C11.2 29.9519 11.6477 30.3996 12.2 30.3996H27.7999C28.3522 30.3996 28.7999 29.9519 28.7999 29.3996V10.5996C28.7999 10.0473 28.3522 9.59961 27.7999 9.59961Z" stroke="white"/>
<path d="M14.3999 14.5303L15.63 15.9996L17.5999 13.5996" stroke="white" stroke-linecap="round" stroke-linejoin="round"/>
<path d="M20 14.7998H25.6" stroke="white" stroke-linecap="round"/>
<path d="M14.3999 19.7305L15.63 21.1998L17.5999 18.7998" stroke="white" stroke-linecap="round" stroke-linejoin="round"/>
<path d="M20 20H25.6" stroke="white" stroke-linecap="round"/>
<path d="M14.3999 24.9307L15.63 26.4L17.5999 24" stroke="white" stroke-linecap="round" stroke-linejoin="round"/>
<path d="M20 25.2002H25.6" stroke="white" stroke-linecap="round"/>
</g>
<defs>
<clipPath id="clip0_5537_3908">
<rect width="40" height="40" fill="white"/>
</clipPath>
</defs>
</svg>
