<svg width="41" height="40" viewBox="0 0 41 40" fill="none" xmlns="http://www.w3.org/2000/svg">
<g clip-path="url(#clip0_5537_3958)">
<path d="M20.5 40C31.5457 40 40.5 31.0457 40.5 20C40.5 8.9543 31.5457 0 20.5 0C9.4543 0 0.5 8.9543 0.5 20C0.5 31.0457 9.4543 40 20.5 40Z" fill="#0298E4"/>
<path d="M19.7 28.8C25.4438 28.8 30.1 24.1438 30.1 18.4C30.1 12.6562 25.4438 8 19.7 8C13.9563 8 9.30005 12.6562 9.30005 18.4C9.30005 24.1438 13.9563 28.8 19.7 28.8Z" fill="#0298E4" stroke="white"/>
<path d="M14.9001 15.2002L17.3001 22.4002L19.7001 15.2002L22.1001 22.4002L24.5001 15.2002" stroke="white" stroke-linecap="round" stroke-linejoin="round"/>
<path d="M15.2 17.6006H13.8C13.5239 17.6006 13.3 17.8244 13.3 18.1006C13.3 18.3767 13.5239 18.6006 13.8 18.6006H15.2C15.4762 18.6006 15.7 18.3767 15.7 18.1006C15.7 17.8244 15.4762 17.6006 15.2 17.6006Z" fill="white"/>
<path d="M25.6 17.6006H24.2C23.9238 17.6006 23.7 17.8244 23.7 18.1006C23.7 18.3767 23.9238 18.6006 24.2 18.6006H25.6C25.8761 18.6006 26.1 18.3767 26.1 18.1006C26.1 17.8244 25.8761 17.6006 25.6 17.6006Z" fill="white"/>
<path d="M26.9971 25.3652L31.6254 29.9936C31.881 30.2492 31.9616 30.583 31.8054 30.7392L31.2397 31.3049C31.0835 31.4611 30.7497 31.3806 30.494 31.1249L25.8657 26.4966" stroke="white" stroke-linejoin="round"/>
</g>
<defs>
<clipPath id="clip0_5537_3958">
<rect width="40" height="40" fill="white" transform="translate(0.5)"/>
</clipPath>
</defs>
</svg>
